<?xml version="1.0" standalone="no"?>
<!DOCTYPE svg PUBLIC "-//W3C//DTD SVG 20010904//EN"
 "http://www.w3.org/TR/2001/REC-SVG-20010904/DTD/svg10.dtd">
<svg version="1.0" xmlns="http://www.w3.org/2000/svg"
 width="512.000000pt" height="512.000000pt" viewBox="0 0 512.000000 512.000000"
 preserveAspectRatio="xMidYMid meet">
<metadata>
Created by potrace 1.11, written by Peter Selinger 2001-2013
</metadata>
<g transform="translate(0.000000,512.000000) scale(0.100000,-0.100000)"
fill="#000000" stroke="none">
<path d="M1739 4483 c-74 -38 -137 -72 -141 -78 -4 -5 -8 -7 -8 -3 0 4 -91
-39 -202 -94 -112 -56 -203 -102 -203 -101 0 0 -235 -117 -523 -261 l-524
-261 1 -610 c0 -335 1 -665 1 -731 l0 -121 128 -84 c70 -46 132 -86 137 -89 6
-3 76 -48 156 -101 80 -53 217 -143 305 -199 87 -57 161 -107 162 -112 2 -4 8
-8 13 -8 9 0 480 -308 489 -320 9 -12 118 -4 136 11 10 8 15 9 12 4 -4 -6 2
-16 13 -23 11 -7 19 -8 19 -2 0 5 -4 10 -10 10 -5 0 -10 7 -10 15 0 8 5 15 11
15 5 0 8 -4 5 -9 -3 -5 1 -12 10 -15 11 -4 15 -2 11 7 -6 16 36 17 50 3 5 -5
2 -6 -6 -1 -10 5 -12 4 -7 -4 10 -15 29 -3 22 15 -4 11 -1 12 13 5 10 -6 21
-7 25 -3 4 3 4 -1 1 -10 -4 -9 -1 -19 4 -23 6 -3 8 -12 4 -18 -3 -7 3 -4 14 5
23 21 40 24 24 4 -9 -11 -7 -12 13 -9 13 3 27 -1 31 -8 6 -8 4 -10 -5 -4 -9 6
-11 4 -6 -4 5 -7 14 -10 21 -7 8 3 19 -3 27 -12 12 -16 11 -16 -7 -2 -19 14
-19 14 -6 -3 11 -14 16 -15 29 -5 13 10 14 10 8 1 -4 -8 -1 -13 9 -13 8 0 20
-10 25 -22 5 -13 9 -17 9 -10 1 6 6 12 12 12 5 0 8 -4 5 -9 -6 -9 14 -21 42
-27 8 -1 17 -6 20 -10 4 -4 0 -5 -9 -2 -9 4 -21 3 -28 -1 -7 -5 0 -8 18 -9 33
-1 75 -24 64 -35 -3 -4 5 -7 18 -8 22 0 23 -1 4 -9 -16 -7 -13 -9 18 -9 20 -1
37 -6 37 -12 0 -5 -4 -7 -10 -4 -6 3 -7 -1 -4 -10 5 -12 9 -13 20 -4 8 7 18 8
22 4 4 -4 2 -10 -5 -12 -8 -3 -7 -10 4 -23 16 -18 17 -18 31 -2 12 15 13 15 8
-8 -5 -24 -5 -25 11 -5 15 20 15 20 10 -2 -4 -20 -3 -21 15 -12 18 10 19 8 13
-13 -6 -19 -5 -21 6 -10 22 21 33 13 13 -10 l-19 -21 29 19 29 18 -12 -22 c-9
-18 -9 -22 1 -20 7 2 12 -3 10 -10 -1 -8 2 -11 8 -7 8 5 7 12 -2 23 -12 15
-11 16 5 3 9 -7 17 -10 17 -7 0 4 7 1 15 -8 8 -8 15 -18 15 -22 0 -3 -7 -1
-15 6 -10 9 -15 9 -15 1 0 -6 5 -11 11 -11 5 0 7 -6 3 -12 -6 -10 -5 -10 8 -1
18 15 29 7 20 -15 -5 -14 -4 -15 10 -2 13 13 14 16 2 23 -8 4 -14 12 -14 17 0
6 9 2 19 -7 11 -9 17 -22 14 -29 -3 -8 0 -14 7 -14 10 0 10 -3 0 -15 -11 -13
-9 -14 16 0 17 9 30 11 32 5 2 -6 10 -10 17 -10 7 0 16 -7 19 -15 5 -14 4 -14
-16 0 -27 18 -35 19 -35 2 0 -7 10 -13 21 -13 15 1 20 -4 18 -19 -2 -11 1 -16
5 -10 21 26 41 36 49 24 4 -8 3 -9 -4 -5 -7 4 -12 1 -12 -8 0 -18 16 -21 25
-6 8 13 22 5 34 -19 8 -13 6 -18 -5 -18 -8 0 -13 6 -10 13 5 13 -19 13 -31 -1
-4 -4 -3 -5 3 -2 7 4 15 0 18 -8 3 -8 9 -15 13 -14 22 4 33 -2 27 -13 -4 -7
-4 -10 1 -6 4 4 14 3 21 -3 9 -7 14 -6 20 3 4 7 4 10 -1 6 -9 -9 -35 9 -35 23
0 5 4 9 10 9 5 0 9 -5 7 -12 -1 -7 5 -12 13 -13 8 0 14 -7 12 -16 -1 -8 10
-26 25 -40 14 -13 23 -18 19 -11 -9 14 3 16 24 2 12 -8 12 -10 1 -10 -8 0 -11
-3 -7 -7 4 -5 14 1 23 12 15 19 15 19 8 -5 -7 -22 -6 -23 7 -12 13 10 17 10
22 -3 4 -10 2 -14 -5 -9 -8 4 -8 0 0 -14 16 -30 24 -33 55 -17 14 8 24 10 21
5 -3 -4 -2 -10 2 -13 5 -2 2 -2 -4 -1 -7 2 -13 -1 -13 -6 0 -6 7 -10 16 -10 9
0 12 -5 8 -12 -5 -9 -2 -8 9 1 10 8 19 12 20 10 1 -2 9 -13 17 -24 14 -19 14
-19 -3 -6 -9 8 -20 11 -23 8 -7 -7 27 -24 46 -22 8 0 14 7 12 14 -1 7 2 10 9
5 9 -5 3 -15 -17 -32 -20 -16 -22 -20 -7 -13 12 6 30 11 40 11 14 -1 13 -4 -7
-15 l-25 -15 29 6 c23 6 27 4 21 -7 -7 -11 -5 -11 10 1 11 9 16 10 11 3 -4 -7
-2 -13 3 -13 6 0 11 -7 11 -15 0 -14 11 -19 38 -16 7 1 15 -5 18 -14 3 -8 10
-15 16 -15 5 0 7 4 4 9 -3 5 1 12 9 15 13 4 14 2 5 -14 -6 -11 -16 -20 -22
-20 -6 0 -8 -3 -5 -6 4 -4 18 1 31 10 24 15 25 15 19 -1 -4 -10 -2 -14 5 -9 6
3 15 -1 20 -10 8 -15 10 -15 15 0 4 10 3 14 -2 11 -20 -12 -16 11 5 31 18 17
24 19 28 8 3 -8 1 -13 -3 -11 -5 1 -9 -1 -10 -5 -2 -14 4 -13 27 3 19 14 20
18 7 22 -8 4 -15 12 -15 19 0 10 2 10 9 -1 7 -11 11 -8 17 10 l7 24 14 -30 13
-30 -5 37 c-3 23 -1 38 6 38 5 0 7 -4 4 -10 -3 -5 -1 -10 5 -10 6 0 8 -4 5
-10 -3 -5 -4 -10 -1 -10 3 0 10 10 17 21 6 12 7 19 2 16 -5 -4 -10 0 -10 7 0
8 7 12 15 8 11 -4 13 -1 7 8 -6 9 -4 11 4 6 7 -5 10 -14 7 -22 -3 -7 -1 -16 3
-19 5 -3 8 9 7 25 -2 22 2 29 11 26 7 -3 13 1 13 9 0 8 5 15 11 15 5 0 8 -4 5
-8 -6 -10 40 -9 50 1 4 3 -3 5 -14 2 -11 -2 -23 2 -25 10 -4 8 1 11 13 8 10
-3 21 0 25 7 5 8 11 8 23 -2 14 -10 15 -10 5 1 -6 7 -9 21 -6 30 4 9 -3 5 -15
-9 -17 -21 -23 -23 -34 -12 -11 11 -10 12 6 6 15 -6 17 -4 11 6 -5 8 -4 11 2
7 6 -4 14 0 17 8 3 8 11 14 18 13 7 -2 12 3 10 10 -1 8 2 11 8 7 8 -5 7 -11
-1 -21 -10 -12 -9 -17 0 -27 10 -9 11 -8 6 5 -5 12 2 21 25 33 17 9 28 20 25
25 -4 6 -2 10 4 10 6 0 8 8 4 18 -5 16 -5 16 8 0 11 -13 18 -15 29 -7 13 10
13 10 0 6 -11 -3 -16 2 -18 16 0 12 2 17 6 11 8 -13 62 -16 62 -4 0 15 -14 19
-34 8 -19 -10 -20 -10 -7 6 8 10 23 15 32 13 10 -3 23 1 30 9 6 8 15 11 20 8
5 -3 6 2 3 10 -5 13 -9 12 -23 -6 -14 -16 -20 -18 -26 -8 -5 8 -4 11 3 6 6 -3
15 1 20 11 5 9 17 18 26 20 9 2 24 5 33 6 9 2 19 10 21 18 3 12 2 12 -6 0 -7
-9 -12 -10 -16 -2 -4 6 -4 11 1 12 4 0 16 2 26 4 9 2 15 0 12 -5 -3 -4 3 -14
13 -21 15 -13 16 -12 4 3 -10 13 -10 17 0 21 10 4 10 7 -1 18 -8 9 -11 9 -7 2
5 -9 2 -11 -9 -6 -13 4 -14 8 -4 13 7 5 19 6 27 2 9 -3 13 -1 9 5 -4 6 0 16 8
23 8 7 15 9 15 4 0 -4 7 1 16 12 14 18 15 18 4 -4 -7 -15 -7 -22 0 -22 5 0 10
5 10 11 0 5 5 7 12 3 7 -4 8 -3 4 5 -4 6 -2 19 5 27 12 14 14 14 26 -2 16 -22
17 -10 2 18 -6 12 -7 18 -1 14 5 -3 13 1 16 9 3 8 11 14 18 13 7 -2 12 2 11 9
-2 7 7 10 25 7 14 -3 23 -2 19 2 -10 10 43 35 57 27 6 -4 5 1 -3 11 -12 14
-12 19 -1 29 10 9 11 9 6 0 -9 -16 20 -18 29 -3 4 6 11 7 17 4 7 -4 8 -2 4 4
-4 7 -2 12 5 12 6 0 9 8 6 20 -4 17 -2 18 14 9 11 -5 16 -15 13 -21 -5 -7 -2
-8 5 -4 9 6 8 13 -6 28 -18 21 -18 21 7 8 22 -12 24 -12 12 2 -20 24 9 44 40
27 21 -11 22 -11 9 5 -12 14 -11 19 4 36 9 10 23 16 31 13 9 -3 14 2 14 13 0
11 4 15 8 9 10 -14 32 -17 32 -5 0 6 -5 10 -10 10 -6 0 -5 6 2 14 7 8 16 12
20 10 4 -2 13 4 20 14 7 10 20 22 28 27 8 4 0 -8 -18 -27 -21 -22 -28 -35 -18
-35 8 0 14 5 13 11 -1 6 5 10 13 8 8 -2 12 0 8 4 -10 9 11 36 23 28 5 -3 6 2
3 11 -7 16 24 47 38 39 5 -3 8 0 8 5 0 6 4 11 10 11 5 0 7 -8 4 -17 -5 -15 -4
-15 4 -3 8 10 7 19 -1 30 -6 8 -8 12 -3 8 5 -4 15 0 24 8 8 9 23 13 33 11 11
-3 22 0 26 5 3 6 1 8 -5 4 -6 -3 -13 -2 -17 4 -3 5 1 10 9 10 9 0 16 5 16 12
0 6 7 3 15 -8 15 -18 15 -18 8 0 -5 15 -3 17 8 11 12 -8 12 -6 0 8 -12 15 -12
17 3 11 11 -4 15 -2 13 7 -2 8 -2 11 1 6 2 -4 13 -12 25 -18 19 -9 20 -8 7 3
-22 18 -19 33 11 57 20 16 29 17 39 8 10 -10 11 -9 5 2 -6 11 -4 13 10 7 15
-5 16 -4 5 9 -11 13 -10 14 5 9 12 -5 16 -4 11 4 -3 6 -1 14 6 18 11 7 21 10
64 16 6 1 11 7 11 14 0 9 -7 8 -26 -3 l-26 -15 25 21 c14 12 33 19 43 17 14
-4 16 -2 7 9 -9 11 -5 17 20 30 18 9 39 14 47 10 13 -4 14 -3 4 9 -10 11 -6
18 19 36 16 12 33 19 37 17 5 -3 9 162 11 366 l3 372 -87 44 c-48 25 -111 60
-140 77 -30 18 -54 30 -54 27 0 -3 -8 1 -18 10 -10 9 -33 23 -52 32 -19 8 -42
20 -50 25 -8 5 -62 35 -120 67 -159 87 -151 74 -148 233 l3 133 85 58 c47 33
93 65 104 71 10 7 29 21 41 31 13 9 26 17 30 17 3 0 13 6 20 13 27 24 40 33
73 52 38 23 40 37 10 58 -13 9 -40 31 -61 50 -21 19 -57 51 -80 70 -23 19 -53
45 -67 57 -14 12 -42 36 -63 53 -86 71 -106 97 -74 97 6 0 53 15 102 34 50 19
119 45 154 57 57 20 62 24 45 35 -11 8 -24 18 -31 24 -7 5 -15 10 -18 10 -3 0
-101 58 -218 128 -117 71 -219 131 -227 135 -8 4 -44 25 -79 47 -34 22 -67 40
-72 40 -5 0 -9 5 -9 10 0 6 -4 10 -9 10 -5 0 -60 31 -123 68 -62 38 -123 74
-135 80 -18 10 -43 6 -145 -24 -68 -19 -133 -37 -145 -40 -12 -2 -35 -9 -50
-15 -26 -9 -96 -4 -118 10 -5 3 -12 6 -15 7 -3 0 -12 3 -20 6 -8 3 -59 20
-113 38 l-98 32 -97 -58 c-53 -32 -100 -63 -104 -69 -5 -6 -8 -6 -8 0 0 6 -3
6 -8 0 -9 -13 -180 -115 -193 -115 -5 0 -91 42 -191 94 -101 52 -254 130 -340
175 -87 45 -164 81 -171 81 -7 0 -74 -30 -148 -67z m-79 -3158 c0 -11 -29 -11
-33 -1 -4 10 1 12 14 9 10 -3 19 -7 19 -8z m-50 -3 c0 -5 -7 -9 -15 -9 -8 0
-12 4 -9 9 3 4 9 8 15 8 5 0 9 -4 9 -8z m240 -8 c0 -8 -5 -12 -10 -9 -6 4 -8
11 -5 16 9 14 15 11 15 -7z m2274 -215 c-9 -11 -20 -16 -23 -13 -3 4 0 9 7 11
6 3 12 11 12 19 0 9 5 12 11 9 7 -5 4 -14 -7 -26z m-69 -50 c-4 -5 -12 -9 -18
-8 -9 0 -8 2 1 6 6 2 9 10 6 15 -4 7 -2 8 5 4 6 -4 9 -12 6 -17z m-1788 -4 c0
-8 -4 -12 -9 -9 -5 3 -6 10 -3 15 9 13 12 11 12 -6z m258 -165 c3 -5 1 -10 -4
-10 -6 0 -11 5 -11 10 0 6 2 10 4 10 3 0 8 -4 11 -10z m229 -162 c-5 -8 0 -9
15 -5 18 4 20 3 10 -9 -9 -11 -15 -11 -25 -3 -12 10 -11 29 2 29 3 0 2 -5 -2
-12z m832 -17 c0 -11 -4 -17 -8 -15 -4 3 -8 0 -8 -6 0 -6 -4 -9 -10 -5 -6 4
16 45 25 45 0 0 1 -9 1 -19z m-696 -76 c-7 -8 -17 -12 -23 -8 -6 4 -3 9 9 14
27 11 28 11 14 -6z m224 -151 c3 -8 2 -12 -4 -9 -6 3 -10 10 -10 16 0 14 7 11
14 -7z"/>
<path d="M4905 1700 c-3 -6 1 -7 9 -4 18 7 21 14 7 14 -6 0 -13 -4 -16 -10z"/>
<path d="M4840 1650 c-9 -6 -10 -10 -3 -10 6 0 15 5 18 10 8 12 4 12 -15 0z"/>
<path d="M4865 1640 c-3 -6 1 -7 9 -4 18 7 21 14 7 14 -6 0 -13 -4 -16 -10z"/>
<path d="M4735 1570 c-3 -5 -5 -10 -3 -11 33 -8 38 -7 27 7 -14 17 -16 17 -24
4z"/>
<path d="M4651 1510 c-18 -15 -19 -20 -7 -20 9 0 16 5 16 11 0 5 4 8 8 5 5 -3
9 1 9 9 0 8 -1 15 -1 15 -1 -1 -12 -10 -25 -20z"/>
<path d="M4559 1393 c-13 -16 -12 -17 4 -4 16 13 21 21 13 21 -2 0 -10 -8 -17
-17z"/>
<path d="M4506 1392 c-3 -5 1 -9 9 -9 8 0 12 4 9 9 -3 4 -7 8 -9 8 -2 0 -6 -4
-9 -8z"/>
<path d="M4431 1336 c-9 -10 -9 -16 -1 -21 6 -4 14 -4 17 -1 4 3 1 6 -6 6 -7
0 -9 5 -6 10 4 6 11 7 17 4 7 -4 8 -2 4 4 -9 15 -11 15 -25 -2z"/>
<path d="M1797 1315 c-4 -8 -3 -16 1 -19 4 -3 9 4 9 15 2 23 -3 25 -10 4z"/>
<path d="M1907 1239 c7 -7 15 -10 18 -7 3 3 -2 9 -12 12 -14 6 -15 5 -6 -5z"/>
<path d="M1980 1211 c0 -6 4 -13 10 -16 6 -3 7 1 4 9 -7 18 -14 21 -14 7z"/>
<path d="M4250 1205 c-10 -12 -10 -15 3 -15 19 0 31 16 18 24 -5 3 -14 -1 -21
-9z"/>
<path d="M4196 1161 c-3 -5 1 -11 9 -14 9 -4 12 -1 8 9 -6 16 -10 17 -17 5z"/>
<path d="M2117 1115 c-4 -8 -3 -16 1 -19 4 -3 9 4 9 15 2 23 -3 25 -10 4z"/>
<path d="M3990 995 c-7 -8 -17 -12 -23 -8 -6 3 -7 1 -3 -5 10 -17 19 -15 34 8
14 23 10 26 -8 5z"/>
<path d="M3845 900 c-3 -5 -1 -10 5 -10 6 0 8 -5 4 -12 -4 -7 -3 -8 4 -4 6 4
9 13 5 21 -6 18 -10 19 -18 5z"/>
<path d="M3750 800 c0 -5 5 -10 10 -10 6 0 10 5 10 10 0 6 -4 10 -10 10 -5 0
-10 -4 -10 -10z"/>
<path d="M3610 679 c0 -5 5 -7 10 -4 6 3 10 8 10 11 0 2 -4 4 -10 4 -5 0 -10
-5 -10 -11z"/>
</g>
</svg>
