<?xml version="1.0" standalone="no"?>
<!DOCTYPE svg PUBLIC "-//W3C//DTD SVG 20010904//EN"
 "http://www.w3.org/TR/2001/REC-SVG-20010904/DTD/svg10.dtd">
<svg version="1.0" xmlns="http://www.w3.org/2000/svg"
 width="295.000000pt" height="295.000000pt" viewBox="0 0 295.000000 295.000000"
 preserveAspectRatio="xMidYMid meet">
<metadata>
Created by potrace 1.11, written by Peter Selinger 2001-2013
</metadata>
<g transform="translate(0.000000,295.000000) scale(0.100000,-0.100000)"
fill="#000000" stroke="none">
<path d="M1285 2839 c-38 -5 -90 -7 -115 -4 -70 9 -141 -9 -168 -41 -21 -24
-24 -36 -20 -85 5 -64 50 -165 98 -220 16 -19 30 -37 30 -41 0 -4 -17 -10 -37
-13 -79 -13 -250 -58 -291 -76 -87 -40 -152 -119 -152 -186 -1 -38 -33 -52
-250 -108 -203 -53 -225 -63 -217 -108 8 -50 87 -244 115 -285 21 -31 27 -58
38 -157 21 -191 82 -718 99 -855 33 -252 36 -302 22 -319 -20 -24 -37 -69 -37
-96 0 -37 11 -56 39 -66 32 -13 244 -36 456 -49 88 -6 214 -17 280 -25 170
-20 423 -44 558 -51 l114 -7 134 55 c74 30 148 58 164 62 119 29 408 185 435
236 13 25 13 96 -1 134 -9 25 -2 116 31 436 41 404 83 758 91 763 2 2 17 8 32
15 17 7 34 27 44 50 19 46 47 243 39 277 -8 32 -41 41 -246 61 -91 9 -193 19
-226 23 l-62 6 -61 120 c-87 172 -123 204 -212 192 -25 -3 -39 -1 -39 6 0 6
-9 30 -21 54 -16 33 -33 50 -68 67 -29 15 -66 48 -99 90 -65 79 -100 94 -181
77 -66 -14 -71 -14 -71 2 0 7 -13 26 -30 42 -25 24 -40 29 -87 31 -32 1 -89
-2 -128 -7z"/>
</g>
</svg>
